<mxfile host="65bd71144e">
    <diagram id="TVxvwUkWyOc7K5uuoQek" name="Page-1">
        <mxGraphModel dx="1190" dy="794" grid="1" gridSize="10" guides="1" tooltips="1" connect="1" arrows="1" fold="1" page="1" pageScale="1" pageWidth="850" pageHeight="1100" math="0" shadow="0">
            <root>
                <mxCell id="0"/>
                <mxCell id="1" parent="0"/>
                <mxCell id="28" value="" style="rounded=1;whiteSpace=wrap;html=1;fillColor=none;strokeColor=#6c8ebf;glass=0;strokeWidth=3;dashed=1;" vertex="1" parent="1">
                    <mxGeometry x="165" y="221" width="200" height="340" as="geometry"/>
                </mxCell>
                <mxCell id="29" value="" style="rounded=1;whiteSpace=wrap;html=1;fillColor=none;strokeColor=#82b366;strokeWidth=3;dashed=1;" vertex="1" parent="1">
                    <mxGeometry x="475" y="221" width="198" height="340" as="geometry"/>
                </mxCell>
                <mxCell id="21" value="" style="group;strokeColor=#d6b656;fillColor=#fff2cc;rounded=1;" vertex="1" connectable="0" parent="1">
                    <mxGeometry x="385" y="341" width="70" height="90" as="geometry"/>
                </mxCell>
                <mxCell id="7" value="" style="sketch=0;aspect=fixed;html=1;points=[];align=center;image;fontSize=12;image=img/lib/mscae/Docker.svg;fontStyle=1" vertex="1" parent="21">
                    <mxGeometry x="5.833333333333334" width="56.25" height="46.125" as="geometry"/>
                </mxCell>
                <mxCell id="15" value="Docker Service Connection" style="text;html=1;strokeColor=none;fillColor=none;align=center;verticalAlign=middle;whiteSpace=wrap;rounded=0;fontStyle=1" vertex="1" parent="21">
                    <mxGeometry y="56.25" width="70" height="33.75" as="geometry"/>
                </mxCell>
                <mxCell id="22" value="" style="group;fillColor=#fff2cc;strokeColor=#d6b656;rounded=1;glass=0;" vertex="1" connectable="0" parent="1">
                    <mxGeometry x="385" y="470" width="70" height="91" as="geometry"/>
                </mxCell>
                <mxCell id="16" value="Service&lt;br&gt;Connection" style="text;html=1;strokeColor=none;fillColor=none;align=center;verticalAlign=middle;whiteSpace=wrap;rounded=0;fontStyle=1" vertex="1" parent="22">
                    <mxGeometry y="57.296296296296305" width="70" height="33.70370370370371" as="geometry"/>
                </mxCell>
                <mxCell id="19" value="" style="sketch=0;outlineConnect=0;fontColor=#232F3E;gradientColor=none;fillColor=#5696D6;strokeColor=none;dashed=0;verticalLabelPosition=bottom;verticalAlign=top;align=center;html=1;fontSize=12;fontStyle=1;aspect=fixed;pointerEvents=1;shape=mxgraph.aws4.peering;" vertex="1" parent="22">
                    <mxGeometry x="5.25" width="57.296296296296305" height="57.296296296296305" as="geometry"/>
                </mxCell>
                <mxCell id="24" value="" style="group;fillColor=#fff2cc;strokeColor=#d6b656;rounded=1;arcSize=27;" vertex="1" connectable="0" parent="1">
                    <mxGeometry x="552.5" y="431" width="75" height="110" as="geometry"/>
                </mxCell>
                <mxCell id="10" value="" style="sketch=0;points=[[0,0,0],[0.25,0,0],[0.5,0,0],[0.75,0,0],[1,0,0],[0,1,0],[0.25,1,0],[0.5,1,0],[0.75,1,0],[1,1,0],[0,0.25,0],[0,0.5,0],[0,0.75,0],[1,0.25,0],[1,0.5,0],[1,0.75,0]];outlineConnect=0;fontColor=#232F3E;gradientColor=#4AB29A;gradientDirection=north;fillColor=#66B2FF;strokeColor=#ffffff;dashed=0;verticalLabelPosition=bottom;verticalAlign=top;align=center;html=1;fontSize=12;fontStyle=1;aspect=fixed;shape=mxgraph.aws4.resourceIcon;resIcon=mxgraph.aws4.desktop_and_app_streaming;" vertex="1" parent="24">
                    <mxGeometry x="11.25" y="17" width="52.5" height="52.5" as="geometry"/>
                </mxCell>
                <mxCell id="17" value="App Service" style="text;html=1;strokeColor=none;fillColor=none;align=center;verticalAlign=middle;whiteSpace=wrap;rounded=0;fontStyle=1" vertex="1" parent="24">
                    <mxGeometry y="72.5" width="75" height="37.5" as="geometry"/>
                </mxCell>
                <mxCell id="25" value="" style="group;fillColor=#fff2cc;strokeColor=#d6b656;rounded=1;" vertex="1" connectable="0" parent="1">
                    <mxGeometry x="555" y="247.33" width="70" height="95.7" as="geometry"/>
                </mxCell>
                <mxCell id="9" value="" style="aspect=fixed;html=1;points=[];align=center;image;fontSize=12;image=img/lib/azure2/containers/Container_Registries.svg;fontStyle=1" vertex="1" parent="25">
                    <mxGeometry x="5.58" y="7.92" width="58.83" height="52.78" as="geometry"/>
                </mxCell>
                <mxCell id="18" value="Container Registry" style="text;html=1;strokeColor=none;fillColor=none;align=center;verticalAlign=middle;whiteSpace=wrap;rounded=0;fontStyle=1" vertex="1" parent="25">
                    <mxGeometry y="60.70060953309764" width="70" height="34.99939046690237" as="geometry"/>
                </mxCell>
                <mxCell id="26" value="" style="group" vertex="1" connectable="0" parent="1">
                    <mxGeometry x="503" y="110.25" width="65" height="84.75" as="geometry"/>
                </mxCell>
                <mxCell id="5" value="" style="verticalLabelPosition=bottom;html=1;verticalAlign=top;align=center;strokeColor=none;fillColor=#00BEF2;shape=mxgraph.azure.azure_subscription;fontStyle=1" vertex="1" parent="26">
                    <mxGeometry width="65" height="45.5" as="geometry"/>
                </mxCell>
                <mxCell id="12" value="Azure&lt;br&gt;Portal" style="text;html=1;strokeColor=none;fillColor=none;align=center;verticalAlign=middle;whiteSpace=wrap;rounded=0;fontStyle=1" vertex="1" parent="26">
                    <mxGeometry y="54.75" width="60" height="30" as="geometry"/>
                </mxCell>
                <mxCell id="27" value="" style="group" vertex="1" connectable="0" parent="1">
                    <mxGeometry x="235" y="101" width="64" height="102" as="geometry"/>
                </mxCell>
                <mxCell id="4" value="" style="aspect=fixed;html=1;points=[];align=center;image;fontSize=12;image=img/lib/azure2/devops/Azure_DevOps.svg;imageBackground=default;fontStyle=1" vertex="1" parent="27">
                    <mxGeometry width="64" height="64" as="geometry"/>
                </mxCell>
                <mxCell id="11" value="Azure&lt;br&gt;Devops" style="text;html=1;strokeColor=none;fillColor=none;align=center;verticalAlign=middle;whiteSpace=wrap;rounded=0;fontStyle=1" vertex="1" parent="27">
                    <mxGeometry x="2" y="72" width="60" height="30" as="geometry"/>
                </mxCell>
                <mxCell id="31" value="" style="group;fillColor=#fff2cc;strokeColor=#d6b656;rounded=1;glass=0;shadow=0;container=0;" vertex="1" connectable="0" parent="1">
                    <mxGeometry x="275" y="251" width="70" height="100" as="geometry"/>
                </mxCell>
                <mxCell id="34" value="" style="group;fillColor=#fff2cc;strokeColor=#d6b656;rounded=1;" vertex="1" connectable="0" parent="1">
                    <mxGeometry x="165" y="391" width="140" height="110" as="geometry"/>
                </mxCell>
                <mxCell id="32" value="" style="aspect=fixed;perimeter=ellipsePerimeter;html=1;align=center;shadow=0;dashed=0;fontColor=#4277BB;labelBackgroundColor=#ffffff;fontSize=12;spacingTop=3;image;image=img/lib/ibm/devops/continuous_deploy.svg;rounded=1;glass=0;sketch=0;strokeColor=default;fillColor=#5696D6;" vertex="1" parent="34">
                    <mxGeometry x="40" width="60" height="60" as="geometry"/>
                </mxCell>
                <mxCell id="33" value="Build Release Pipeline-Build/Push and deploy Docker imaage" style="text;html=1;strokeColor=none;fillColor=none;align=center;verticalAlign=middle;whiteSpace=wrap;rounded=0;shadow=0;glass=0;sketch=0;" vertex="1" parent="34">
                    <mxGeometry y="60" width="140" height="50" as="geometry"/>
                </mxCell>
                <mxCell id="6" value="" style="verticalLabelPosition=bottom;html=1;verticalAlign=top;align=center;strokeColor=none;fillColor=#00BEF2;shape=mxgraph.azure.git_repository;fontStyle=1" vertex="1" parent="1">
                    <mxGeometry x="280.83333333333337" y="262.11" width="58.333333333333336" height="55.55555555555556" as="geometry"/>
                </mxCell>
                <mxCell id="13" value="Code Repository" style="text;html=1;strokeColor=none;fillColor=none;align=center;verticalAlign=middle;whiteSpace=wrap;rounded=0;fontStyle=1" vertex="1" parent="1">
                    <mxGeometry x="275" y="317.6666666666667" width="70" height="33.333333333333336" as="geometry"/>
                </mxCell>
                <mxCell id="40" value="" style="endArrow=classic;html=1;entryX=0.5;entryY=0;entryDx=0;entryDy=0;" edge="1" parent="1" target="32">
                    <mxGeometry width="50" height="50" relative="1" as="geometry">
                        <mxPoint x="275" y="311" as="sourcePoint"/>
                        <mxPoint x="245" y="281" as="targetPoint"/>
                        <Array as="points">
                            <mxPoint x="235" y="311"/>
                        </Array>
                    </mxGeometry>
                </mxCell>
                <mxCell id="41" value="" style="endArrow=classic;html=1;" edge="1" parent="1">
                    <mxGeometry width="50" height="50" relative="1" as="geometry">
                        <mxPoint x="305" y="421" as="sourcePoint"/>
                        <mxPoint x="385" y="421" as="targetPoint"/>
                    </mxGeometry>
                </mxCell>
                <mxCell id="42" value="" style="endArrow=classic;html=1;exitX=0.5;exitY=1;exitDx=0;exitDy=0;" edge="1" parent="1" source="33">
                    <mxGeometry width="50" height="50" relative="1" as="geometry">
                        <mxPoint x="230.82999999999998" y="551" as="sourcePoint"/>
                        <mxPoint x="385" y="521" as="targetPoint"/>
                        <Array as="points">
                            <mxPoint x="235" y="521"/>
                        </Array>
                    </mxGeometry>
                </mxCell>
                <mxCell id="43" value="" style="endArrow=classic;html=1;exitX=0.554;exitY=-0.079;exitDx=0;exitDy=0;exitPerimeter=0;entryX=0.075;entryY=0.393;entryDx=0;entryDy=0;entryPerimeter=0;" edge="1" parent="1" source="7" target="9">
                    <mxGeometry width="50" height="50" relative="1" as="geometry">
                        <mxPoint x="495" y="326" as="sourcePoint"/>
                        <mxPoint x="545" y="276" as="targetPoint"/>
                        <Array as="points">
                            <mxPoint x="422" y="276"/>
                        </Array>
                    </mxGeometry>
                </mxCell>
                <mxCell id="44" value="" style="endArrow=classic;html=1;exitX=0.5;exitY=1;exitDx=0;exitDy=0;" edge="1" parent="1" source="18">
                    <mxGeometry width="50" height="50" relative="1" as="geometry">
                        <mxPoint x="585" y="421" as="sourcePoint"/>
                        <mxPoint x="590" y="431" as="targetPoint"/>
                    </mxGeometry>
                </mxCell>
                <mxCell id="45" value="" style="endArrow=classic;html=1;entryX=0;entryY=0.25;entryDx=0;entryDy=0;" edge="1" parent="1">
                    <mxGeometry width="50" height="50" relative="1" as="geometry">
                        <mxPoint x="455" y="520" as="sourcePoint"/>
                        <mxPoint x="552.5" y="519.875" as="targetPoint"/>
                    </mxGeometry>
                </mxCell>
                <mxCell id="49" value="" style="group" vertex="1" connectable="0" parent="1">
                    <mxGeometry x="11" y="270" width="154" height="91" as="geometry"/>
                </mxCell>
                <mxCell id="47" value="" style="html=1;shadow=0;dashed=0;align=center;verticalAlign=middle;shape=mxgraph.arrows2.calloutArrow;dy=10;dx=20;notch=119;arrowHead=10;rounded=1;glass=0;sketch=0;strokeColor=#d6b656;strokeWidth=2;fillColor=none;" vertex="1" parent="49">
                    <mxGeometry width="154" height="91" as="geometry"/>
                </mxCell>
                <mxCell id="48" value="Will build image, tag it and will push to Container registry" style="text;html=1;strokeColor=none;fillColor=none;align=center;verticalAlign=middle;whiteSpace=wrap;rounded=0;shadow=0;glass=0;dashed=1;sketch=0;strokeWidth=2;fontStyle=1" vertex="1" parent="49">
                    <mxGeometry x="4" y="20.889999999999986" width="110" height="55.11" as="geometry"/>
                </mxCell>
                <mxCell id="50" value="" style="group" vertex="1" connectable="0" parent="1">
                    <mxGeometry x="11" y="470" width="154" height="91" as="geometry"/>
                </mxCell>
                <mxCell id="51" value="" style="html=1;shadow=0;dashed=0;align=center;verticalAlign=middle;shape=mxgraph.arrows2.calloutArrow;dy=10;dx=20;notch=119;arrowHead=10;rounded=1;glass=0;sketch=0;strokeColor=#d6b656;strokeWidth=2;fillColor=none;" vertex="1" parent="50">
                    <mxGeometry width="154" height="91" as="geometry"/>
                </mxCell>
                <mxCell id="52" value="Will deploy image to docker app service with the help of service connection" style="text;html=1;strokeColor=none;fillColor=none;align=center;verticalAlign=middle;whiteSpace=wrap;rounded=0;shadow=0;glass=0;dashed=1;sketch=0;strokeWidth=2;fontStyle=1" vertex="1" parent="50">
                    <mxGeometry x="4" y="20.889999999999986" width="110" height="55.11" as="geometry"/>
                </mxCell>
                <mxCell id="53" value="" style="group;rotation=180;" vertex="1" connectable="0" parent="1">
                    <mxGeometry x="687" y="340" width="154" height="91" as="geometry"/>
                </mxCell>
                <mxCell id="54" value="" style="html=1;shadow=0;dashed=0;align=center;verticalAlign=middle;shape=mxgraph.arrows2.calloutArrow;dy=10;dx=20;notch=119;arrowHead=10;rounded=1;glass=0;sketch=0;strokeColor=#d6b656;strokeWidth=2;fillColor=none;direction=west;" vertex="1" parent="53">
                    <mxGeometry width="154" height="91" as="geometry"/>
                </mxCell>
                <mxCell id="55" value="Azure App Service will pull image from ACR on start up" style="text;html=1;strokeColor=none;fillColor=none;align=center;verticalAlign=middle;whiteSpace=wrap;rounded=0;shadow=0;glass=0;dashed=1;sketch=0;strokeWidth=2;fontStyle=1" vertex="1" parent="53">
                    <mxGeometry x="40" y="20.889999999999986" width="110" height="55.11" as="geometry"/>
                </mxCell>
                <mxCell id="56" value="" style="group;rotation=180;" vertex="1" connectable="0" parent="1">
                    <mxGeometry x="687" y="471" width="154" height="90" as="geometry"/>
                </mxCell>
                <mxCell id="57" value="" style="html=1;shadow=0;dashed=0;align=center;verticalAlign=middle;shape=mxgraph.arrows2.calloutArrow;dy=10;dx=20;notch=119;arrowHead=10;rounded=1;glass=0;sketch=0;strokeColor=#d6b656;strokeWidth=2;fillColor=none;direction=west;" vertex="1" parent="56">
                    <mxGeometry y="-0.989010989010989" width="154" height="90" as="geometry"/>
                </mxCell>
                <mxCell id="58" value="Docker server user name and password will be configured in app setting" style="text;html=1;strokeColor=none;fillColor=none;align=center;verticalAlign=middle;whiteSpace=wrap;rounded=0;shadow=0;glass=0;dashed=1;sketch=0;strokeWidth=2;fontStyle=1" vertex="1" parent="56">
                    <mxGeometry x="40" y="19.67142857142856" width="110" height="54.504395604395604" as="geometry"/>
                </mxCell>
            </root>
        </mxGraphModel>
    </diagram>
</mxfile>